# xmcd
#
# Track frame offsets: 
#        150
#        13382
#        26248
#        41800
#        54632
#        67184
#        82429
#        97642
#        112389
#        125282
#        137759
#        150996
#        163286
#        177925
#        189809
#        203686
#        217974
#        230878
#        244287
#        258340
#        272563
#        286287
#        299918
#        314303
#        327090
#
# Disc length: 4524 seconds
#
# Revision: 3
# Processed by: cddbd v1.5.2PL0 Copyright (c) Steve Scherf et al.
# Submitted via: ExactAudioCopy v0.95b3
#
DISCID=8611aa19
DTITLE=Carter Family - The Carter Family 1927-1934 [CDA)
DYEAR=2002
DGENRE=Country
TTITLE0=Bury Me Under The Weeping Willow
TTITLE1=Little Log Cabin By The Sea
TTITLE2=The Poor Orphan Child
TTITLE3=The Storms Are On The Ocean
TTITLE4=Single Girl, Married Girl
TTITLE5=The Wandering Boy
TTITLE6=Meet Me By The Moonlight, Alone
TTITLE7=Little Darling Pal Of Mine
TTITLE8=Keep On The Sunny Side
TTITLE9=Anchored In Love
TTITLE10=John Hardy Was A Desperate Little Man
TTITLE11=I Ain't Goin' To Work Tomorrow
TTITLE12=Will You Miss Me When I'm Gone
TTITLE13=River Of Jordan
TTITLE14=Chewing Gum
TTITLE15=Wildwood Flower
TTITLE16=I Have No One To Love Me (But The Sailor On The Deep Blue Sea
TTITLE16=)
TTITLE17=Forsaken Love
TTITLE18=Sweet Fern
TTITLE19=My Clinch Mountain Home
TTITLE20=God Gave Noah The Rainbow Sign
TTITLE21=I'm Thinking Tonight Of My Blue Eyes
TTITLE22=Little Moses
TTITLE23=Lulu Walls
TTITLE24=The Grave On The Green Hillside
EXTD=YEAR: 2001
EXTT0=
EXTT1=
EXTT2=
EXTT3=
EXTT4=
EXTT5=
EXTT6=
EXTT7=
EXTT8=
EXTT9=
EXTT10=
EXTT11=
EXTT12=
EXTT13=
EXTT14=
EXTT15=
EXTT16=
EXTT17=
EXTT18=
EXTT19=
EXTT20=
EXTT21=
EXTT22=
EXTT23=
EXTT24=
PLAYORDER=
